<svg id="visual" viewBox="0 0 960 540" width="960" height="540" xmlns="http://www.w3.org/2000/svg" xmlns:xlink="http://www.w3.org/1999/xlink" version="1.1"><rect x="0" y="0" width="960" height="540" fill="#001f36"></rect><path d="M0 230L22.8 231.7C45.7 233.3 91.3 236.7 137 236C182.7 235.3 228.3 230.7 274 240C319.7 249.3 365.3 272.7 411.2 286.8C457 301 503 306 548.8 296.3C594.7 286.7 640.3 262.3 686 267.7C731.7 273 777.3 308 823 308.8C868.7 309.7 914.3 276.3 937.2 259.7L960 243L960 541L937.2 541C914.3 541 868.7 541 823 541C777.3 541 731.7 541 686 541C640.3 541 594.7 541 548.8 541C503 541 457 541 411.2 541C365.3 541 319.7 541 274 541C228.3 541 182.7 541 137 541C91.3 541 45.7 541 22.8 541L0 541Z" fill="#681239"></path><path d="M0 335L22.8 333C45.7 331 91.3 327 137 322C182.7 317 228.3 311 274 316.3C319.7 321.7 365.3 338.3 411.2 340C457 341.7 503 328.3 548.8 323.7C594.7 319 640.3 323 686 334.3C731.7 345.7 777.3 364.3 823 372.8C868.7 381.3 914.3 379.7 937.2 378.8L960 378L960 541L937.2 541C914.3 541 868.7 541 823 541C777.3 541 731.7 541 686 541C640.3 541 594.7 541 548.8 541C503 541 457 541 411.2 541C365.3 541 319.7 541 274 541C228.3 541 182.7 541 137 541C91.3 541 45.7 541 22.8 541L0 541Z" fill="#272146"></path><path d="M0 350L22.8 357.5C45.7 365 91.3 380 137 388.7C182.7 397.3 228.3 399.7 274 394.5C319.7 389.3 365.3 376.7 411.2 366.5C457 356.3 503 348.7 548.8 344.8C594.7 341 640.3 341 686 348.2C731.7 355.3 777.3 369.7 823 375C868.7 380.3 914.3 376.7 937.2 374.8L960 373L960 541L937.2 541C914.3 541 868.7 541 823 541C777.3 541 731.7 541 686 541C640.3 541 594.7 541 548.8 541C503 541 457 541 411.2 541C365.3 541 319.7 541 274 541C228.3 541 182.7 541 137 541C91.3 541 45.7 541 22.8 541L0 541Z" fill="#001f36"></path><path d="M0 403L22.8 406.7C45.7 410.3 91.3 417.7 137 428C182.7 438.3 228.3 451.7 274 451.8C319.7 452 365.3 439 411.2 426.5C457 414 503 402 548.8 398.5C594.7 395 640.3 400 686 407C731.7 414 777.3 423 823 426.7C868.7 430.3 914.3 428.7 937.2 427.8L960 427L960 541L937.2 541C914.3 541 868.7 541 823 541C777.3 541 731.7 541 686 541C640.3 541 594.7 541 548.8 541C503 541 457 541 411.2 541C365.3 541 319.7 541 274 541C228.3 541 182.7 541 137 541C91.3 541 45.7 541 22.8 541L0 541Z" fill="#272146"></path><path d="M0 476L22.8 472.5C45.7 469 91.3 462 137 465C182.7 468 228.3 481 274 484.5C319.7 488 365.3 482 411.2 480.5C457 479 503 482 548.8 483C594.7 484 640.3 483 686 485.5C731.7 488 777.3 494 823 496C868.7 498 914.3 496 937.2 495L960 494L960 541L937.2 541C914.3 541 868.7 541 823 541C777.3 541 731.7 541 686 541C640.3 541 594.7 541 548.8 541C503 541 457 541 411.2 541C365.3 541 319.7 541 274 541C228.3 541 182.7 541 137 541C91.3 541 45.7 541 22.8 541L0 541Z" fill="#681239"></path></svg>