<svg id="visual" viewBox="0 0 960 540" width="960" height="540" xmlns="http://www.w3.org/2000/svg" xmlns:xlink="http://www.w3.org/1999/xlink" version="1.1"><rect x="0" y="0" width="960" height="540" fill="#001220"></rect><defs><linearGradient id="grad1_0" x1="43.8%" y1="100%" x2="100%" y2="0%"><stop offset="14.444444444444446%" stop-color="#3f51b5" stop-opacity="1"></stop><stop offset="85.55555555555554%" stop-color="#3f51b5" stop-opacity="1"></stop></linearGradient></defs><defs><linearGradient id="grad1_1" x1="43.8%" y1="100%" x2="100%" y2="0%"><stop offset="14.444444444444446%" stop-color="#3f51b5" stop-opacity="1"></stop><stop offset="85.55555555555554%" stop-color="#254aa0" stop-opacity="1"></stop></linearGradient></defs><defs><linearGradient id="grad1_2" x1="43.8%" y1="100%" x2="100%" y2="0%"><stop offset="14.444444444444446%" stop-color="#07428a" stop-opacity="1"></stop><stop offset="85.55555555555554%" stop-color="#254aa0" stop-opacity="1"></stop></linearGradient></defs><defs><linearGradient id="grad1_3" x1="43.8%" y1="100%" x2="100%" y2="0%"><stop offset="14.444444444444446%" stop-color="#07428a" stop-opacity="1"></stop><stop offset="85.55555555555554%" stop-color="#003974" stop-opacity="1"></stop></linearGradient></defs><defs><linearGradient id="grad1_4" x1="43.8%" y1="100%" x2="100%" y2="0%"><stop offset="14.444444444444446%" stop-color="#00305e" stop-opacity="1"></stop><stop offset="85.55555555555554%" stop-color="#003974" stop-opacity="1"></stop></linearGradient></defs><defs><linearGradient id="grad1_5" x1="43.8%" y1="100%" x2="100%" y2="0%"><stop offset="14.444444444444446%" stop-color="#00305e" stop-opacity="1"></stop><stop offset="85.55555555555554%" stop-color="#002648" stop-opacity="1"></stop></linearGradient></defs><defs><linearGradient id="grad1_6" x1="43.8%" y1="100%" x2="100%" y2="0%"><stop offset="14.444444444444446%" stop-color="#001c34" stop-opacity="1"></stop><stop offset="85.55555555555554%" stop-color="#002648" stop-opacity="1"></stop></linearGradient></defs><defs><linearGradient id="grad1_7" x1="43.8%" y1="100%" x2="100%" y2="0%"><stop offset="14.444444444444446%" stop-color="#001c34" stop-opacity="1"></stop><stop offset="85.55555555555554%" stop-color="#001220" stop-opacity="1"></stop></linearGradient></defs><defs><linearGradient id="grad2_0" x1="0%" y1="100%" x2="56.3%" y2="0%"><stop offset="14.444444444444446%" stop-color="#3f51b5" stop-opacity="1"></stop><stop offset="85.55555555555554%" stop-color="#3f51b5" stop-opacity="1"></stop></linearGradient></defs><defs><linearGradient id="grad2_1" x1="0%" y1="100%" x2="56.3%" y2="0%"><stop offset="14.444444444444446%" stop-color="#254aa0" stop-opacity="1"></stop><stop offset="85.55555555555554%" stop-color="#3f51b5" stop-opacity="1"></stop></linearGradient></defs><defs><linearGradient id="grad2_2" x1="0%" y1="100%" x2="56.3%" y2="0%"><stop offset="14.444444444444446%" stop-color="#254aa0" stop-opacity="1"></stop><stop offset="85.55555555555554%" stop-color="#07428a" stop-opacity="1"></stop></linearGradient></defs><defs><linearGradient id="grad2_3" x1="0%" y1="100%" x2="56.3%" y2="0%"><stop offset="14.444444444444446%" stop-color="#003974" stop-opacity="1"></stop><stop offset="85.55555555555554%" stop-color="#07428a" stop-opacity="1"></stop></linearGradient></defs><defs><linearGradient id="grad2_4" x1="0%" y1="100%" x2="56.3%" y2="0%"><stop offset="14.444444444444446%" stop-color="#003974" stop-opacity="1"></stop><stop offset="85.55555555555554%" stop-color="#00305e" stop-opacity="1"></stop></linearGradient></defs><defs><linearGradient id="grad2_5" x1="0%" y1="100%" x2="56.3%" y2="0%"><stop offset="14.444444444444446%" stop-color="#002648" stop-opacity="1"></stop><stop offset="85.55555555555554%" stop-color="#00305e" stop-opacity="1"></stop></linearGradient></defs><defs><linearGradient id="grad2_6" x1="0%" y1="100%" x2="56.3%" y2="0%"><stop offset="14.444444444444446%" stop-color="#002648" stop-opacity="1"></stop><stop offset="85.55555555555554%" stop-color="#001c34" stop-opacity="1"></stop></linearGradient></defs><defs><linearGradient id="grad2_7" x1="0%" y1="100%" x2="56.3%" y2="0%"><stop offset="14.444444444444446%" stop-color="#001220" stop-opacity="1"></stop><stop offset="85.55555555555554%" stop-color="#001c34" stop-opacity="1"></stop></linearGradient></defs><g transform="translate(960, 540)"><path d="M-540 0C-503.4 -40.3 -466.7 -80.7 -449.2 -120.4C-431.6 -160 -433.1 -199.1 -429.5 -248C-426 -296.9 -417.2 -355.6 -381.8 -381.8C-346.5 -408.1 -284.4 -401.9 -239.5 -414.8C-194.6 -427.8 -166.7 -459.9 -129.7 -483.9C-92.6 -508 -46.3 -524 0 -540L0 0Z" fill="#00182a"></path><path d="M-472.5 0C-440.4 -35.3 -408.4 -70.6 -393 -105.3C-377.7 -140 -379 -174.2 -375.9 -217C-372.7 -259.8 -365.1 -311.1 -334.1 -334.1C-303.2 -357.1 -248.9 -351.6 -209.6 -363C-170.2 -374.3 -145.9 -402.4 -113.5 -423.4C-81 -444.5 -40.5 -458.5 0 -472.5L0 0Z" fill="#00213e"></path><path d="M-405 0C-377.5 -30.2 -350 -60.5 -336.9 -90.3C-323.7 -120 -324.9 -149.3 -322.2 -186C-319.5 -222.7 -312.9 -266.7 -286.4 -286.4C-259.8 -306.1 -213.3 -301.4 -179.6 -311.1C-145.9 -320.8 -125.1 -344.9 -97.3 -362.9C-69.5 -381 -34.7 -393 0 -405L0 0Z" fill="#002b53"></path><path d="M-337.5 0C-314.6 -25.2 -291.7 -50.4 -280.7 -75.2C-269.8 -100 -270.7 -124.4 -268.5 -155C-266.2 -185.6 -260.8 -222.2 -238.6 -238.6C-216.5 -255.1 -177.8 -251.2 -149.7 -259.3C-121.6 -267.4 -104.2 -287.4 -81 -302.5C-57.9 -317.5 -28.9 -327.5 0 -337.5L0 0Z" fill="#003469"></path><path d="M-270 0C-251.7 -20.2 -233.4 -40.3 -224.6 -60.2C-215.8 -80 -216.6 -99.6 -214.8 -124C-213 -148.4 -208.6 -177.8 -190.9 -190.9C-173.2 -204 -142.2 -200.9 -119.8 -207.4C-97.3 -213.9 -83.4 -229.9 -64.8 -242C-46.3 -254 -23.2 -262 0 -270L0 0Z" fill="#003d7f"></path><path d="M-202.5 0C-188.8 -15.1 -175 -30.2 -168.4 -45.1C-161.9 -60 -162.4 -74.7 -161.1 -93C-159.7 -111.3 -156.5 -133.3 -143.2 -143.2C-129.9 -153 -106.7 -150.7 -89.8 -155.6C-73 -160.4 -62.5 -172.5 -48.6 -181.5C-34.7 -190.5 -17.4 -196.5 0 -202.5L0 0Z" fill="#174695"></path><path d="M-135 0C-125.8 -10.1 -116.7 -20.2 -112.3 -30.1C-107.9 -40 -108.3 -49.8 -107.4 -62C-106.5 -74.2 -104.3 -88.9 -95.5 -95.5C-86.6 -102 -71.1 -100.5 -59.9 -103.7C-48.6 -106.9 -41.7 -115 -32.4 -121C-23.2 -127 -11.6 -131 0 -135L0 0Z" fill="#324eab"></path><path d="M-67.5 0C-62.9 -5 -58.3 -10.1 -56.1 -15C-54 -20 -54.1 -24.9 -53.7 -31C-53.2 -37.1 -52.2 -44.4 -47.7 -47.7C-43.3 -51 -35.6 -50.2 -29.9 -51.9C-24.3 -53.5 -20.8 -57.5 -16.2 -60.5C-11.6 -63.5 -5.8 -65.5 0 -67.5L0 0Z" fill="#3f51b5"></path></g><g transform="translate(0, 0)"><path d="M540 0C504 40.5 468.1 81 450.1 120.6C432.2 160.3 432.2 199.1 427.8 247C423.4 294.9 414.6 352 381.8 381.8C349.1 411.7 292.4 414.2 248 429.5C203.6 444.9 171.5 473 132.3 493.6C93 514.1 46.5 527.1 0 540L0 0Z" fill="#00182a"></path><path d="M472.5 0C441 35.4 409.6 70.8 393.9 105.5C378.1 140.2 378.2 174.2 374.3 216.1C370.5 258.1 362.8 308 334.1 334.1C305.4 360.2 255.8 362.4 217 375.9C178.2 389.3 150.1 413.9 115.7 431.9C81.4 449.9 40.7 461.2 0 472.5L0 0Z" fill="#00213e"></path><path d="M405 0C378 30.4 351.1 60.7 337.6 90.5C324.1 120.2 324.2 149.3 320.9 185.2C317.6 221.2 310.9 264 286.4 286.4C261.8 308.7 219.3 310.7 186 322.2C152.7 333.7 128.7 354.8 99.2 370.2C69.7 385.6 34.9 395.3 0 405L0 0Z" fill="#002b53"></path><path d="M337.5 0C315 25.3 292.5 50.6 281.3 75.4C270.1 100.2 270.1 124.4 267.4 154.4C264.6 184.3 259.1 220 238.6 238.6C218.2 257.3 182.7 258.9 155 268.5C127.3 278.1 107.2 295.7 82.7 308.5C58.1 321.3 29.1 329.4 0 337.5L0 0Z" fill="#003469"></path><path d="M270 0C252 20.2 234 40.5 225.1 60.3C216.1 80.1 216.1 99.5 213.9 123.5C211.7 147.5 207.3 176 190.9 190.9C174.5 205.8 146.2 207.1 124 214.8C101.8 222.4 85.8 236.5 66.1 246.8C46.5 257.1 23.2 263.5 0 270L0 0Z" fill="#003d7f"></path><path d="M202.5 0C189 15.2 175.5 30.4 168.8 45.2C162.1 60.1 162.1 74.6 160.4 92.6C158.8 110.6 155.5 132 143.2 143.2C130.9 154.4 109.6 155.3 93 161.1C76.4 166.8 64.3 177.4 49.6 185.1C34.9 192.8 17.4 197.6 0 202.5L0 0Z" fill="#174695"></path><path d="M135 0C126 10.1 117 20.2 112.5 30.2C108 40.1 108.1 49.8 107 61.7C105.9 73.7 103.6 88 95.5 95.5C87.3 102.9 73.1 103.6 62 107.4C50.9 111.2 42.9 118.3 33.1 123.4C23.2 128.5 11.6 131.8 0 135L0 0Z" fill="#324eab"></path><path d="M67.5 0C63 5.1 58.5 10.1 56.3 15.1C54 20 54 24.9 53.5 30.9C52.9 36.9 51.8 44 47.7 47.7C43.6 51.5 36.5 51.8 31 53.7C25.5 55.6 21.4 59.1 16.5 61.7C11.6 64.3 5.8 65.9 0 67.5L0 0Z" fill="#3f51b5"></path></g></svg>