<svg id="visual" viewBox="0 0 900 600" width="900" height="600" xmlns="http://www.w3.org/2000/svg" xmlns:xlink="http://www.w3.org/1999/xlink" version="1.1"><path d="M0 31L18.8 34C37.7 37 75.3 43 112.8 43C150.3 43 187.7 37 225.2 39C262.7 41 300.3 51 337.8 52C375.3 53 412.7 45 450.2 40C487.7 35 525.3 33 562.8 34C600.3 35 637.7 39 675.2 42C712.7 45 750.3 47 787.8 47C825.3 47 862.7 45 881.3 44L900 43L900 0L881.3 0C862.7 0 825.3 0 787.8 0C750.3 0 712.7 0 675.2 0C637.7 0 600.3 0 562.8 0C525.3 0 487.7 0 450.2 0C412.7 0 375.3 0 337.8 0C300.3 0 262.7 0 225.2 0C187.7 0 150.3 0 112.8 0C75.3 0 37.7 0 18.8 0L0 0Z" fill="#000a13"></path><path d="M0 55L18.8 58C37.7 61 75.3 67 112.8 67C150.3 67 187.7 61 225.2 64C262.7 67 300.3 79 337.8 80C375.3 81 412.7 71 450.2 65C487.7 59 525.3 57 562.8 59C600.3 61 637.7 67 675.2 72C712.7 77 750.3 81 787.8 80C825.3 79 862.7 73 881.3 70L900 67L900 41L881.3 42C862.7 43 825.3 45 787.8 45C750.3 45 712.7 43 675.2 40C637.7 37 600.3 33 562.8 32C525.3 31 487.7 33 450.2 38C412.7 43 375.3 51 337.8 50C300.3 49 262.7 39 225.2 37C187.7 35 150.3 41 112.8 41C75.3 41 37.7 35 18.8 32L0 29Z" fill="#000c17"></path><path d="M0 121L18.8 122C37.7 123 75.3 125 112.8 122C150.3 119 187.7 111 225.2 116C262.7 121 300.3 139 337.8 138C375.3 137 412.7 117 450.2 106C487.7 95 525.3 93 562.8 96C600.3 99 637.7 107 675.2 113C712.7 119 750.3 123 787.8 126C825.3 129 862.7 131 881.3 132L900 133L900 65L881.3 68C862.7 71 825.3 77 787.8 78C750.3 79 712.7 75 675.2 70C637.7 65 600.3 59 562.8 57C525.3 55 487.7 57 450.2 63C412.7 69 375.3 79 337.8 78C300.3 77 262.7 65 225.2 62C187.7 59 150.3 65 112.8 65C75.3 65 37.7 59 18.8 56L0 53Z" fill="#000e1b"></path><path d="M0 169L18.8 165C37.7 161 75.3 153 112.8 147C150.3 141 187.7 137 225.2 143C262.7 149 300.3 165 337.8 167C375.3 169 412.7 157 450.2 146C487.7 135 525.3 125 562.8 124C600.3 123 637.7 131 675.2 137C712.7 143 750.3 147 787.8 151C825.3 155 862.7 159 881.3 161L900 163L900 131L881.3 130C862.7 129 825.3 127 787.8 124C750.3 121 712.7 117 675.2 111C637.7 105 600.3 97 562.8 94C525.3 91 487.7 93 450.2 104C412.7 115 375.3 135 337.8 136C300.3 137 262.7 119 225.2 114C187.7 109 150.3 117 112.8 120C75.3 123 37.7 121 18.8 120L0 119Z" fill="#00111e"></path><path d="M0 235L18.8 227C37.7 219 75.3 203 112.8 199C150.3 195 187.7 203 225.2 207C262.7 211 300.3 211 337.8 209C375.3 207 412.7 203 450.2 193C487.7 183 525.3 167 562.8 170C600.3 173 637.7 195 675.2 208C712.7 221 750.3 225 787.8 226C825.3 227 862.7 225 881.3 224L900 223L900 161L881.3 159C862.7 157 825.3 153 787.8 149C750.3 145 712.7 141 675.2 135C637.7 129 600.3 121 562.8 122C525.3 123 487.7 133 450.2 144C412.7 155 375.3 167 337.8 165C300.3 163 262.7 147 225.2 141C187.7 135 150.3 139 112.8 145C75.3 151 37.7 159 18.8 163L0 167Z" fill="#001220"></path><path d="M0 253L18.8 249C37.7 245 75.3 237 112.8 237C150.3 237 187.7 245 225.2 246C262.7 247 300.3 241 337.8 235C375.3 229 412.7 223 450.2 213C487.7 203 525.3 189 562.8 195C600.3 201 637.7 227 675.2 243C712.7 259 750.3 265 787.8 267C825.3 269 862.7 267 881.3 266L900 265L900 221L881.3 222C862.7 223 825.3 225 787.8 224C750.3 223 712.7 219 675.2 206C637.7 193 600.3 171 562.8 168C525.3 165 487.7 181 450.2 191C412.7 201 375.3 205 337.8 207C300.3 209 262.7 209 225.2 205C187.7 201 150.3 193 112.8 197C75.3 201 37.7 217 18.8 225L0 233Z" fill="#001220"></path><path d="M0 349L18.8 342C37.7 335 75.3 321 112.8 321C150.3 321 187.7 335 225.2 331C262.7 327 300.3 305 337.8 291C375.3 277 412.7 271 450.2 269C487.7 267 525.3 269 562.8 283C600.3 297 637.7 323 675.2 338C712.7 353 750.3 357 787.8 358C825.3 359 862.7 357 881.3 356L900 355L900 263L881.3 264C862.7 265 825.3 267 787.8 265C750.3 263 712.7 257 675.2 241C637.7 225 600.3 199 562.8 193C525.3 187 487.7 201 450.2 211C412.7 221 375.3 227 337.8 233C300.3 239 262.7 245 225.2 244C187.7 243 150.3 235 112.8 235C75.3 235 37.7 243 18.8 247L0 251Z" fill="#00111e"></path><path d="M0 391L18.8 382C37.7 373 75.3 355 112.8 356C150.3 357 187.7 377 225.2 376C262.7 375 300.3 353 337.8 338C375.3 323 412.7 315 450.2 314C487.7 313 525.3 319 562.8 333C600.3 347 637.7 369 675.2 380C712.7 391 750.3 391 787.8 393C825.3 395 862.7 399 881.3 401L900 403L900 353L881.3 354C862.7 355 825.3 357 787.8 356C750.3 355 712.7 351 675.2 336C637.7 321 600.3 295 562.8 281C525.3 267 487.7 265 450.2 267C412.7 269 375.3 275 337.8 289C300.3 303 262.7 325 225.2 329C187.7 333 150.3 319 112.8 319C75.3 319 37.7 333 18.8 340L0 347Z" fill="#000e1b"></path><path d="M0 499L18.8 498C37.7 497 75.3 495 112.8 496C150.3 497 187.7 501 225.2 492C262.7 483 300.3 461 337.8 456C375.3 451 412.7 463 450.2 474C487.7 485 525.3 495 562.8 506C600.3 517 637.7 529 675.2 525C712.7 521 750.3 501 787.8 493C825.3 485 862.7 489 881.3 491L900 493L900 401L881.3 399C862.7 397 825.3 393 787.8 391C750.3 389 712.7 389 675.2 378C637.7 367 600.3 345 562.8 331C525.3 317 487.7 311 450.2 312C412.7 313 375.3 321 337.8 336C300.3 351 262.7 373 225.2 374C187.7 375 150.3 355 112.8 354C75.3 353 37.7 371 18.8 380L0 389Z" fill="#000c17"></path><path d="M0 601L18.8 601C37.7 601 75.3 601 112.8 601C150.3 601 187.7 601 225.2 601C262.7 601 300.3 601 337.8 601C375.3 601 412.7 601 450.2 601C487.7 601 525.3 601 562.8 601C600.3 601 637.7 601 675.2 601C712.7 601 750.3 601 787.8 601C825.3 601 862.7 601 881.3 601L900 601L900 491L881.3 489C862.7 487 825.3 483 787.8 491C750.3 499 712.7 519 675.2 523C637.7 527 600.3 515 562.8 504C525.3 493 487.7 483 450.2 472C412.7 461 375.3 449 337.8 454C300.3 459 262.7 481 225.2 490C187.7 499 150.3 495 112.8 494C75.3 493 37.7 495 18.8 496L0 497Z" fill="#000a13"></path></svg>